<?xml version="1.0" encoding="UTF-8"?>
<svg id="_128" data-name="128" xmlns="http://www.w3.org/2000/svg" viewBox="0 0 128 128">
  <defs>
    <style>
      .cls-1 {
        fill: #006a08;
      }

      .cls-1, .cls-2 {
        stroke-width: 0px;
      }

      .cls-2 {
        fill: #fff;
      }
    </style>
  </defs>
  <path class="cls-2" d="M57.61,79.47c-5.59-8.56-15.42-15.97-15.41-25.02l.12-3.54c-.25-13.78,21.36-23.69,26.62-23.54,20.88-1.88,37.32-8.28,48.69-21.29h-22.93C90.7,6.08,90.7,0,94.71,0h30.36c1.6.05,2.89,1.37,2.92,2.96v29.47c0,4.03-6.07,4.03-6.07,0V10.37c-8.54,14.48-27.62,22.92-53.31,27.56-3.25,1.83-6.78,3.7-9.64,6.54l-.06.08c-1.78,1.79-3.29,3.97-4.28,6.76l-.11,3.54c1.12,3.64,4.59,7.56,8.28,11.93"/>
  <path class="cls-1" d="M70.76,50.93l13.12,28.7,14.96-50.45,1.8-.83h7.79c2.07,0,3.53,2.03,2.88,3.99l-21.59,65.14c-.41,1.24-1.57,2.08-2.88,2.08h-6.21c-1.23,0-2.34-.75-2.81-1.89l-13.84-33.87-3.82,9.37-10.02,24.6c-.47,1.14-1.58,1.89-2.81,1.89h-6.21c-1.31,0-2.47-.84-2.88-2.08L16.64,32.43c-.65-1.96.81-3.99,2.88-3.99h9.34s15.21,51.28,15.21,51.28c0,0,0,0,0,0l9.9-21.72,3.22-7.07c.49-1.08,1.57-1.78,2.77-1.78h8.05c1.19,0,2.26.7,2.76,1.78Z"/>
  <path class="cls-2" d="M62.79,66.78c5.36,6.36,11.18,13.69,10.88,22.57l-.09,3.44c-2.1,19.15-22.89,22.19-35.91,20.54l.8-10.89c13.16.74,20.86-1.85,22.72-9.96l.12-3.54c-.32-3.38-1.75-6.5-3.69-9.47"/>
  <path class="cls-2" d="M22.54,6.07c-9.07,0-16.46,7.48-16.46,16.34v83.32c0,8.05,6.95,16.19,16.46,16.19h83.11c9.37,0,16.28-8.15,16.28-16.19v-56.99c0-1.68,1.36-3.04,3.04-3.04h0c1.67,0,3.03,1.36,3.03,3.03v56.99c0,11.93-10.23,22.27-22.35,22.27H22.54c-12.46,0-22.54-10.34-22.54-22.27V22.41C0,10.14,10.14,0,22.54,0h56.72c1.67,0,3.03,1.36,3.03,3.03h0c0,1.68-1.36,3.04-3.04,3.04H22.54Z"/>
</svg>