<?xml version="1.0" standalone="no"?>
<!DOCTYPE svg PUBLIC "-//W3C//DTD SVG 20010904//EN"
 "http://www.w3.org/TR/2001/REC-SVG-20010904/DTD/svg10.dtd">
<svg version="1.0" xmlns="http://www.w3.org/2000/svg"
 width="1080.000000pt" height="1080.000000pt" viewBox="0 0 1080.000000 1080.000000"
 preserveAspectRatio="xMidYMid meet">

<g transform="translate(0.000000,1080.000000) scale(0.100000,-0.100000)"
fill="#000000" stroke="none">
<path d="M7855 7334 c-553 -46 -1009 -246 -1294 -567 -190 -215 -287 -453
-311 -758 -15 -205 11 -429 71 -589 76 -204 246 -404 474 -555 253 -168 684
-309 1288 -420 455 -83 643 -166 703 -311 37 -90 11 -250 -56 -342 -71 -98
-240 -173 -458 -202 -123 -17 -367 -7 -484 19 -344 78 -545 299 -566 625 l-7
101 -534 3 -534 2 7 -122 c14 -245 44 -424 100 -593 194 -580 654 -925 1380
-1036 170 -26 562 -37 731 -20 475 48 917 234 1192 502 204 199 322 394 385
636 26 104 31 140 35 298 8 257 -17 419 -91 593 -87 207 -301 420 -543 541
-166 83 -482 172 -978 276 -331 69 -610 152 -743 219 -71 36 -128 89 -160 150
-37 70 -38 195 -3 274 30 67 120 151 205 191 124 60 216 75 446 75 188 -1 213
-3 302 -27 245 -65 381 -196 438 -421 11 -44 20 -95 20 -115 0 -20 3 -53 6
-73 l7 -38 529 0 530 0 -7 113 c-17 292 -49 436 -137 612 -88 176 -189 317
-322 450 -270 269 -588 419 -1029 486 -129 20 -472 33 -592 23z"/>
<path d="M1114 7188 c3 -13 277 -1033 609 -2268 l603 -2245 126 -3 c95 -2 127
1 130 10 3 7 155 572 339 1256 183 683 336 1242 339 1242 3 0 156 -564 341
-1253 l336 -1252 126 -3 126 -3 7 28 c4 15 278 1036 609 2268 l602 2240 -1340
3 c-737 1 -1342 1 -1343 -1 -2 -2 89 -347 201 -766 113 -419 205 -772 205
-783 0 -27 -672 -2518 -679 -2518 -4 0 -251 916 -551 2035 l-545 2035 -124 0
c-123 0 -123 0 -117 -22z m3981 -230 c-3 -10 -972 -3624 -1016 -3792 -6 -21
-12 -36 -14 -35 -3 4 -598 2205 -875 3239 -83 311 -154 573 -156 583 -5 16 49
17 1030 17 824 0 1034 -3 1031 -12z"/>
</g>
</svg>
